<svg height="512pt" viewBox="0 -121 512 512" width="512pt" xmlns="http://www.w3.org/2000/svg"><path d="m48.558594 61.253906h-26.046875c-12.414063 0-22.511719 10.097656-22.511719 22.511719v59.710937c0 12.414063 10.097656 22.515626 22.511719 22.515626h17.15625c3.910156 0 7.164062-3.003907 7.476562-6.898438l6.238281-77.042969c.300782-3.707031 1.0625-7.355469 2.269532-10.847656.789062-2.292969.421875-4.828125-.984375-6.804687-1.40625-1.972657-3.683594-3.144532-6.109375-3.144532zm0 0" fill="#243133"/><path d="m489.488281 61.253906h-26.046875c-2.425781 0-4.703125 1.171875-6.109375 3.144532-1.40625 1.976562-1.773437 4.511718-.984375 6.804687 1.207032 3.492187 1.96875 7.140625 2.269532 10.847656l6.238281 77.042969c.3125 3.894531 3.566406 6.898438 7.476562 6.898438h17.15625c12.414063 0 22.511719-10.101563 22.511719-22.515626v-59.710937c0-12.414063-10.097656-22.511719-22.511719-22.511719zm0 0" fill="#243133"/><path d="m462.617188 131.476562 2.238281 27.617188c.3125 3.898438 3.566406 6.898438 7.476562 6.898438h17.15625c12.414063 0 22.511719-10.101563 22.511719-22.515626v-12zm0 0" fill="#1d2728"/><path d="m0 131.476562v12c0 12.414063 10.097656 22.515626 22.511719 22.515626h17.15625c3.910156 0 7.164062-3.003907 7.476562-6.898438l2.238281-27.617188zm0 0" fill="#1d2728"/><path d="m482.683594 193.515625-9.121094-112.675781c-1.605469-19.800782-12.460938-36.492188-28.335938-43.5625-82.460937-36.730469-181.410156-37.27343775-186.960937-37.27343775-.042969 0-.078125 0-.109375 0-4.398438-.04687505-108.34375.26953175-191.414062 37.28124975-15.863282 7.070313-26.710938 23.757813-28.3125 43.554688l-9.125 112.675781c-2.125 26.246094 12.9375 50.628906 35.03125 56.714844l64.324218 17.71875c6.269532 1.726562 12.683594 2.578125 19.097656 2.578125 11.753907 0 23.496094-2.875 34.269532-8.515625l61.476562-32.203125c8.054688-4.21875 16.925782-4.21875 24.980469 0l61.476563 32.203125c16.652343 8.71875 35.605468 10.828125 53.367187 5.9375l64.324219-17.71875c22.09375-6.085938 37.15625-30.46875 35.03125-56.714844zm0 0" fill="#3e5359"/><path d="m481.332031 176.003906c-4.253906 18.460938-16.945312 33.566406-33.679687 38.175782l-64.324219 17.71875c-17.761719 4.890624-36.714844 2.78125-53.367187-5.9375l-61.480469-32.199219c-8.050781-4.21875-16.921875-4.21875-24.976563 0l-61.476562 32.199219c-10.777344 5.640624-22.515625 8.515624-34.273438 8.515624-6.410156 0-12.824218-.851562-19.09375-2.578124l-64.324218-17.71875c-16.734376-4.609376-29.425782-19.714844-33.679688-38.175782l-1.351562 16.695313c-2.125 26.25 12.9375 50.632812 35.03125 56.71875l64.324218 17.714843c6.269532 1.726563 12.683594 2.582032 19.097656 2.582032 11.753907 0 23.496094-2.875 34.269532-8.519532l61.480468-32.199218c8.050782-4.21875 16.921876-4.21875 24.976563 0l61.476563 32.199218c16.652343 8.722657 35.605468 10.832032 53.367187 5.9375l64.324219-17.714843c22.09375-6.085938 37.15625-30.46875 35.03125-56.71875zm0 0" fill="#334549"/><g fill="#243133"><path d="m76.835938 174.792969c-.183594 0-.371094-.007813-.5625-.023438-4.128907-.304687-7.230469-3.902343-6.925782-8.035156l4.851563-65.328125c.304687-4.132812 3.910156-7.238281 8.039062-6.929688 4.132813.308594 7.234375 3.90625 6.925781 8.039063l-4.851562 65.328125c-.292969 3.945312-3.582031 6.949219-7.476562 6.949219zm0 0"/><path d="m439.453125 174.792969c-3.890625 0-7.183594-3.003907-7.476563-6.949219l-4.847656-65.328125c-.308594-4.128906 2.792969-7.730469 6.925782-8.039063 4.144531-.300781 7.730468 2.796876 8.039062 6.929688l4.847656 65.328125c.308594 4.128906-2.792968 7.730469-6.925781 8.035156-.1875.015625-.375.023438-.5625.023438zm0 0"/></g></svg>