<svg height="512pt" viewBox="0 -121 512.001 512" width="512pt" xmlns="http://www.w3.org/2000/svg"><path d="m48.558594 61.25h-26.042969c-12.414063 0-22.515625 10.101562-22.515625 22.515625v59.710937c0 12.414063 10.101562 22.511719 22.515625 22.511719h17.152344c3.90625 0 7.164062-3 7.476562-6.894531l6.238281-77.042969c.300782-3.707031 1.0625-7.355469 2.269532-10.851562.789062-2.292969.421875-4.828125-.984375-6.800781-1.410157-1.976563-3.683594-3.148438-6.109375-3.148438zm0 0" fill="#243133"/><path d="m489.484375 61.25h-26.042969c-2.425781 0-4.699218 1.171875-6.109375 3.148438-1.40625 1.972656-1.773437 4.507812-.980469 6.800781 1.203126 3.496093 1.964844 7.144531 2.265626 10.851562l6.238281 77.042969c.3125 3.894531 3.570312 6.894531 7.476562 6.894531h17.15625c12.414063 0 22.511719-10.097656 22.511719-22.511719v-59.710937c0-12.414063-10.101562-22.515625-22.515625-22.515625zm0 0" fill="#243133"/><path d="m462.617188 131.476562 2.238281 27.617188c.3125 3.894531 3.566406 6.894531 7.476562 6.894531h17.152344c12.414063 0 22.515625-10.097656 22.515625-22.511719v-12zm0 0" fill="#1d2728"/><path d="m0 131.476562v12c0 12.414063 10.101562 22.511719 22.515625 22.511719h17.152344c3.90625 0 7.164062-3 7.476562-6.894531l2.238281-27.617188zm0 0" fill="#1d2728"/><path d="m482.683594 193.511719-9.121094-112.671875c-1.605469-19.800782-12.460938-36.492188-28.335938-43.566406-83.070312-36.996094-182.886718-37.273438-187.070312-37.273438-4.386719-.03125-108.359375.277344-191.417969 37.285156-15.859375 7.066406-26.710937 23.757813-28.3125 43.554688l-9.121093 112.671875c-2.125 26.25 12.9375 50.632812 35.03125 56.71875l64.324218 17.71875c17.765625 4.890625 36.71875 2.78125 53.367188-5.9375l61.476562-32.203125c8.058594-4.21875 16.925782-4.214844 24.980469 0l61.476563 32.203125c10.777343 5.644531 22.515624 8.515625 34.273437 8.515625 6.410156 0 12.824219-.855469 19.09375-2.582032l64.324219-17.714843c22.097656-6.085938 37.15625-30.46875 35.03125-56.71875zm0 0" fill="#3e5359"/><path d="m481.363281 177.207031c-4.222656 18.523438-16.933593 33.699219-33.710937 38.320313l-64.324219 17.714844c-6.269531 1.726562-12.6875 2.582031-19.097656 2.582031-11.757813 0-23.492188-2.875-34.269531-8.519531l-61.476563-32.199219c-8.054687-4.21875-16.921875-4.21875-24.980469 0l-61.476562 32.199219c-16.648438 8.722656-35.601563 10.832031-53.367188 5.9375l-64.324218-17.714844c-16.777344-4.621094-29.488282-19.796875-33.710938-38.324219l-1.320312 16.308594c-2.125 26.25 12.9375 50.632812 35.03125 56.71875l64.324218 17.714843c17.765625 4.894532 36.71875 2.785157 53.367188-5.9375l61.476562-32.199218c8.058594-4.21875 16.925782-4.21875 24.980469 0l61.476563 32.199218c10.777343 5.644532 22.515624 8.519532 34.273437 8.519532 6.410156 0 12.824219-.855469 19.09375-2.582032l64.324219-17.714843c22.097656-6.085938 37.15625-30.46875 35.03125-56.71875zm0 0" fill="#334549"/><g fill="#243133"><path d="m149.066406 87.34375c-26.429687 0-47.933594 21.503906-47.933594 47.933594 0 26.429687 21.503907 47.933594 47.933594 47.933594 26.429688 0 47.933594-21.503907 47.933594-47.933594 0-26.429688-21.503906-47.933594-47.933594-47.933594zm0 0"/><path d="m367.277344 87.34375c-26.429688 0-47.929688 21.503906-47.929688 47.933594 0 26.429687 21.5 47.933594 47.929688 47.933594 26.429687 0 47.933594-21.503907 47.933594-47.933594 0-26.429688-21.503907-47.933594-47.933594-47.933594zm0 0"/></g></svg>