<?xml version="1.0" encoding="iso-8859-1"?>
<!-- Generator: Adobe Illustrator 19.0.0, SVG Export Plug-In . SVG Version: 6.00 Build 0)  -->
<svg version="1.1" id="Capa_1" xmlns="http://www.w3.org/2000/svg" xmlns:xlink="http://www.w3.org/1999/xlink" x="0px" y="0px"
	 viewBox="0 0 512 512" style="enable-background:new 0 0 512 512;" xml:space="preserve">
<g>
	<g>
		<path d="M162.133,332.8h-51.2c-4.71,0-8.533,3.814-8.533,8.533v51.2c0,4.719,3.823,8.533,8.533,8.533h51.2
			c4.71,0,8.533-3.814,8.533-8.533v-51.2C170.667,336.614,166.844,332.8,162.133,332.8z M153.6,384h-34.133v-34.133H153.6V384z"/>
	</g>
</g>
<g>
	<g>
		<path d="M281.6,213.333h-51.2c-4.71,0-8.533,3.814-8.533,8.533v51.2c0,4.719,3.823,8.533,8.533,8.533h51.2
			c4.71,0,8.533-3.814,8.533-8.533v-51.2C290.133,217.148,286.31,213.333,281.6,213.333z M273.067,264.533h-34.133V230.4h34.133
			V264.533z"/>
	</g>
</g>
<g>
	<g>
		<path d="M230.4,238.933c-56.465,0-102.4,45.935-102.4,102.4c0,4.719,3.823,8.533,8.533,8.533s8.533-3.814,8.533-8.533
			c0-47.053,38.281-85.333,85.333-85.333c4.71,0,8.533-3.814,8.533-8.533S235.11,238.933,230.4,238.933z"/>
	</g>
</g>
<g>
	<g>
		<path d="M401.067,332.8h-51.2c-4.71,0-8.533,3.814-8.533,8.533v51.2c0,4.719,3.823,8.533,8.533,8.533h51.2
			c4.71,0,8.533-3.814,8.533-8.533v-51.2C409.6,336.614,405.777,332.8,401.067,332.8z M392.533,384H358.4v-34.133h34.133V384z"/>
	</g>
</g>
<g>
	<g>
		<path d="M281.6,238.933c-4.71,0-8.533,3.814-8.533,8.533S276.89,256,281.6,256c47.053,0,85.333,38.281,85.333,85.333
			c0,4.719,3.823,8.533,8.533,8.533s8.533-3.814,8.533-8.533C384,284.868,338.065,238.933,281.6,238.933z"/>
	</g>
</g>
<g>
	<g>
		<path d="M230.4,238.933H110.933c-4.71,0-8.533,3.814-8.533,8.533s3.823,8.533,8.533,8.533H230.4c4.71,0,8.533-3.814,8.533-8.533
			S235.11,238.933,230.4,238.933z"/>
	</g>
</g>
<g>
	<g>
		<path d="M401.067,238.933H281.6c-4.71,0-8.533,3.814-8.533,8.533S276.89,256,281.6,256h119.467c4.71,0,8.533-3.814,8.533-8.533
			S405.777,238.933,401.067,238.933z"/>
	</g>
</g>
<g>
	<g>
		<path d="M473.6,0H38.4C17.229,0,0,17.229,0,38.4v435.2C0,494.771,17.229,512,38.4,512h435.2c21.171,0,38.4-17.229,38.4-38.4V38.4
			C512,17.229,494.771,0,473.6,0z M494.933,473.6c0,11.767-9.566,21.333-21.333,21.333H38.4c-11.759,0-21.333-9.566-21.333-21.333
			V38.4c0-11.768,9.574-21.333,21.333-21.333h435.2c11.759,0,21.333,9.566,21.333,21.333V473.6z"/>
	</g>
</g>
<g>
	<g>
		<path d="M76.8,34.133H42.667c-4.71,0-8.533,3.814-8.533,8.533V76.8c0,4.719,3.823,8.533,8.533,8.533H76.8
			c4.71,0,8.533-3.814,8.533-8.533V42.667C85.333,37.948,81.51,34.133,76.8,34.133z M68.267,68.267H51.2V51.2h17.067V68.267z"/>
	</g>
</g>
<g>
	<g>
		<path d="M145.067,34.133h-34.133c-4.71,0-8.533,3.814-8.533,8.533V76.8c0,4.719,3.823,8.533,8.533,8.533h34.133
			c4.71,0,8.533-3.814,8.533-8.533V42.667C153.6,37.948,149.777,34.133,145.067,34.133z M136.533,68.267h-17.067V51.2h17.067V68.267
			z"/>
	</g>
</g>
<g>
	<g>
		<path d="M213.333,34.133H179.2c-4.71,0-8.533,3.814-8.533,8.533V76.8c0,4.719,3.823,8.533,8.533,8.533h34.133
			c4.71,0,8.533-3.814,8.533-8.533V42.667C221.867,37.948,218.044,34.133,213.333,34.133z M204.8,68.267h-17.067V51.2H204.8V68.267z
			"/>
	</g>
</g>
<g>
	<g>
		<path d="M473.6,0H38.4C17.229,0,0,17.229,0,38.4v72.533c0,4.719,3.823,8.533,8.533,8.533h494.933c4.71,0,8.533-3.814,8.533-8.533
			V38.4C512,17.229,494.771,0,473.6,0z M494.933,102.4H17.067v-64c0-11.768,9.574-21.333,21.333-21.333h435.2
			c11.759,0,21.333,9.566,21.333,21.333V102.4z"/>
	</g>
</g>
<g>
	<g>
		<path d="M469.333,136.533H42.667c-4.71,0-8.533,3.814-8.533,8.533v324.267c0,4.719,3.823,8.533,8.533,8.533h426.667
			c4.71,0,8.533-3.814,8.533-8.533V145.067C477.867,140.348,474.044,136.533,469.333,136.533z M460.8,460.8H51.2V153.6h409.6V460.8z
			"/>
	</g>
</g>
<g>
	<g>
		<path d="M110.933,170.667H76.8c-4.71,0-8.533,3.814-8.533,8.533v34.133c0,4.719,3.823,8.533,8.533,8.533s8.533-3.814,8.533-8.533
			v-25.6h25.6c4.71,0,8.533-3.814,8.533-8.533S115.644,170.667,110.933,170.667z"/>
	</g>
</g>
<g>
	<g>
		<path d="M435.2,392.533c-4.71,0-8.533,3.814-8.533,8.533v25.6h-25.6c-4.71,0-8.533,3.814-8.533,8.533s3.823,8.533,8.533,8.533
			H435.2c4.71,0,8.533-3.814,8.533-8.533v-34.133C443.733,396.348,439.91,392.533,435.2,392.533z"/>
	</g>
</g>
<g>
	<g>
		<path d="M313.233,352.367l-51.2-51.2c-3.328-3.336-8.738-3.336-12.066,0l-51.2,51.2c-2.441,2.441-3.174,6.11-1.852,9.301
			s4.429,5.265,7.885,5.265c9.336,0,25.6,16.265,25.6,25.6c0,4.719,3.823,8.533,8.533,8.533h34.133c4.71,0,8.533-3.814,8.533-8.533
			c0-9.335,16.265-25.6,25.6-25.6c3.456,0,6.562-2.074,7.885-5.265S315.674,354.807,313.233,352.367z M266.001,384h-20.002
			c-3.729-11.401-14.063-23.091-25.327-29.397L256,319.266l35.328,35.336C280.064,360.909,269.73,372.599,266.001,384z"/>
	</g>
</g>
<g>
	<g>
		<path d="M273.067,384h-34.133c-4.71,0-8.533,3.814-8.533,8.533v34.133c0,4.719,3.823,8.533,8.533,8.533h34.133
			c4.71,0,8.533-3.814,8.533-8.533v-34.133C281.6,387.814,277.777,384,273.067,384z M264.533,418.133h-17.067v-17.067h17.067
			V418.133z"/>
	</g>
</g>
<g>
	<g>
		<path d="M256,298.667c-4.71,0-8.533,3.814-8.533,8.533v34.133c0,4.719,3.823,8.533,8.533,8.533s8.533-3.814,8.533-8.533V307.2
			C264.533,302.481,260.71,298.667,256,298.667z"/>
	</g>
</g>
<g>
</g>
<g>
</g>
<g>
</g>
<g>
</g>
<g>
</g>
<g>
</g>
<g>
</g>
<g>
</g>
<g>
</g>
<g>
</g>
<g>
</g>
<g>
</g>
<g>
</g>
<g>
</g>
<g>
</g>
</svg>
